<?xml version="1.0" encoding="UTF-8"?>
<svg width="331.20mm" height="242.30mm" viewBox="0.0 0.0 331.20 242.30" xmlns="http://www.w3.org/2000/svg" xmlns:dc="http://purl.org/dc/elements/1.1/" xmlns:cc="http://creativecommons.org/ns#" xmlns:rdf="http://www.w3.org/1999/02/22-rdf-syntax-ns#" xmlns:svg="http://www.w3.org/2000/svg" xmlns:xlink="http://www.w3.org/1999/xlink" xmlns:inkscape="http://www.inkscape.org/namespaces/inkscape">
<!--
DisplayCase - Fully closed box intended to be cut from transparent acrylics and to serve as a display case.

Created with Boxes.py (https://festi.info/boxes.py)
Creation date: 2022-12-07 14:05:07
Command line (remove spaces between dashes): boxes DisplayCase - -FingerJoint_angle=90.0 - -FingerJoint_style=rectangular - -FingerJoint_surroundingspaces=2.0 - -FingerJoint_edge_width=1.0 - -FingerJoint_extra_length=0.0 - -FingerJoint_finger=2.0 - -FingerJoint_play=0.0 - -FingerJoint_space=2.0 - -FingerJoint_width=1.0 - -x=150.0 - -y=100.0 - -h=50.0 - -outside=0 - -outside=1 - -overhang=2 - -thickness=5.0 - -format=svg - -tabs=0.0 - -debug=0 - -labels=0 - -labels=1 - -reference=100 - -inner_corners=loop - -burn=0.1
Url: http://www.festi.info/DisplayCase?FingerJoint_angle=90.0&FingerJoint_style=rectangular&FingerJoint_surroundingspaces=2.0&FingerJoint_edge_width=1.0&FingerJoint_extra_length=0.0&FingerJoint_finger=2.0&FingerJoint_play=0.0&FingerJoint_space=2.0&FingerJoint_width=1.0&x=150.0&y=100.0&h=50.0&outside=0&outside=1&overhang=2&thickness=5.0&format=svg&tabs=0.0&debug=0&labels=0&labels=1&reference=100&inner_corners=loop&burn=0.1&render=1
SettingsUrl: http://www.festi.info/DisplayCase?FingerJoint_angle=90.0&FingerJoint_style=rectangular&FingerJoint_surroundingspaces=2.0&FingerJoint_edge_width=1.0&FingerJoint_extra_length=0.0&FingerJoint_finger=2.0&FingerJoint_play=0.0&FingerJoint_space=2.0&FingerJoint_width=1.0&x=150.0&y=100.0&h=50.0&outside=0&outside=1&overhang=2&thickness=5.0&format=svg&tabs=0.0&debug=0&labels=0&labels=1&reference=100&inner_corners=loop&burn=0.1
-->
<title>DisplayCase</title>
<metadata>
<rdf:RDF><cc:Work>
<dc:title>Box - DisplayCase</dc:title>
<dc:date>2022-12-07 14:05:07</dc:date>
<dc:source>http://www.festi.info/DisplayCase?FingerJoint_angle=90.0&amp;FingerJoint_style=rectangular&amp;FingerJoint_surroundingspaces=2.0&amp;FingerJoint_edge_width=1.0&amp;FingerJoint_extra_length=0.0&amp;FingerJoint_finger=2.0&amp;FingerJoint_play=0.0&amp;FingerJoint_space=2.0&amp;FingerJoint_width=1.0&amp;x=150.0&amp;y=100.0&amp;h=50.0&amp;outside=0&amp;outside=1&amp;overhang=2&amp;thickness=5.0&amp;format=svg&amp;tabs=0.0&amp;debug=0&amp;labels=0&amp;labels=1&amp;reference=100&amp;inner_corners=loop&amp;burn=0.1&amp;render=1</dc:source>
<dc:description>Fully closed box intended to be cut from transparent acrylics and to serve as a display case.

Created with Boxes.py (https://festi.info/boxes.py)
Command line: boxes DisplayCase --FingerJoint_angle=90.0 --FingerJoint_style=rectangular --FingerJoint_surroundingspaces=2.0 --FingerJoint_edge_width=1.0 --FingerJoint_extra_length=0.0 --FingerJoint_finger=2.0 --FingerJoint_play=0.0 --FingerJoint_space=2.0 --FingerJoint_width=1.0 --x=150.0 --y=100.0 --h=50.0 --outside=0 --outside=1 --overhang=2 --thickness=5.0 --format=svg --tabs=0.0 --debug=0 --labels=0 --labels=1 --reference=100 --inner_corners=loop --burn=0.1
Url: http://www.festi.info/DisplayCase?FingerJoint_angle=90.0&amp;FingerJoint_style=rectangular&amp;FingerJoint_surroundingspaces=2.0&amp;FingerJoint_edge_width=1.0&amp;FingerJoint_extra_length=0.0&amp;FingerJoint_finger=2.0&amp;FingerJoint_play=0.0&amp;FingerJoint_space=2.0&amp;FingerJoint_width=1.0&amp;x=150.0&amp;y=100.0&amp;h=50.0&amp;outside=0&amp;outside=1&amp;overhang=2&amp;thickness=5.0&amp;format=svg&amp;tabs=0.0&amp;debug=0&amp;labels=0&amp;labels=1&amp;reference=100&amp;inner_corners=loop&amp;burn=0.1&amp;render=1
SettingsUrl: http://www.festi.info/DisplayCase?FingerJoint_angle=90.0&amp;FingerJoint_style=rectangular&amp;FingerJoint_surroundingspaces=2.0&amp;FingerJoint_edge_width=1.0&amp;FingerJoint_extra_length=0.0&amp;FingerJoint_finger=2.0&amp;FingerJoint_play=0.0&amp;FingerJoint_space=2.0&amp;FingerJoint_width=1.0&amp;x=150.0&amp;y=100.0&amp;h=50.0&amp;outside=0&amp;outside=1&amp;overhang=2&amp;thickness=5.0&amp;format=svg&amp;tabs=0.0&amp;debug=0&amp;labels=0&amp;labels=1&amp;reference=100&amp;inner_corners=loop&amp;burn=0.1
</dc:description>
</cc:Work></rdf:RDF></metadata>
<g id="p-0" style="fill:none;stroke-linecap:round;stroke-linejoin:round;">
  <path d="M 10.400 232.300 H 110.400 V 222.300 H 10.400 V 232.300 Z" stroke="rgb(0,0,0)" stroke-width="0.20"/>
  <text transform="matrix( 1.000 0.000 0.000 1.000 60.400 223.300 )" style="font-family: sans-serif ; font-weight: normal; font-style: normal; fill: rgb(255,0,0)" font-size="8px" text-anchor="middle" dominant-baseline="hanging">100mm, burn:0.10mm</text>
</g>
<g id="p-1" style="fill:none;stroke-linecap:round;stroke-linejoin:round;">
  <text transform="matrix( 1.000 0.000 0.000 1.000 85.400 192.600 )" style="font-family: sans-serif ; font-weight: normal; font-style: normal; fill: rgb(255,0,0)" font-size="4px" text-anchor="middle" dominant-baseline="hanging">Wall 1</text><path d="M 15.400 214.600 H 30.300 C 30.400 214.600 30.300 214.500 30.300 214.600 V 219.500 C 30.300 219.555 30.345 219.600 30.400 219.600 H 40.400 C 40.455 219.600 40.500 219.555 40.500 219.500 V 214.600 C 40.500 214.500 40.400 214.600 40.500 214.600 H 50.300 C 50.400 214.600 50.300 214.500 50.300 214.600 V 219.500 C 50.300 219.555 50.345 219.600 50.400 219.600 H 60.400 C 60.455 219.600 60.500 219.555 60.500 219.500 V 214.600 C 60.500 214.500 60.400 214.600 60.500 214.600 H 70.300 C 70.400 214.600 70.300 214.500 70.300 214.600 V 219.500 C 70.300 219.555 70.345 219.600 70.400 219.600 H 80.400 C 80.455 219.600 80.500 219.555 80.500 219.500 V 214.600 C 80.500 214.500 80.400 214.600 80.500 214.600 H 90.300 C 90.400 214.600 90.300 214.500 90.300 214.600 V 219.500 C 90.300 219.555 90.345 219.600 90.400 219.600 H 100.400 C 100.455 219.600 100.500 219.555 100.500 219.500 V 214.600 C 100.500 214.500 100.400 214.600 100.500 214.600 H 110.300 C 110.400 214.600 110.300 214.500 110.300 214.600 V 219.500 C 110.300 219.555 110.345 219.600 110.400 219.600 H 120.400 C 120.455 219.600 120.500 219.555 120.500 219.500 V 214.600 C 120.500 214.500 120.400 214.600 120.500 214.600 H 130.300 C 130.400 214.600 130.300 214.500 130.300 214.600 V 219.500 C 130.300 219.555 130.345 219.600 130.400 219.600 H 140.400 C 140.455 219.600 140.500 219.555 140.500 219.500 V 214.600 C 140.500 214.500 140.400 214.600 140.500 214.600 H 155.400 C 155.455 214.600 155.500 214.555 155.500 214.500 V 199.600 C 155.500 199.500 155.400 199.600 155.500 199.600 H 160.400 C 160.455 199.600 160.500 199.555 160.500 199.500 V 189.500 C 160.500 189.445 160.455 189.400 160.400 189.400 H 155.500 C 155.400 189.400 155.500 189.500 155.500 189.400 V 174.500 C 155.500 174.445 155.455 174.400 155.400 174.400 H 140.500 C 140.400 174.400 140.500 174.500 140.500 174.400 V 169.500 C 140.500 169.445 140.455 169.400 140.400 169.400 H 130.400 C 130.345 169.400 130.300 169.445 130.300 169.500 V 174.400 C 130.300 174.500 130.400 174.400 130.300 174.400 H 120.500 C 120.400 174.400 120.500 174.500 120.500 174.400 V 169.500 C 120.500 169.445 120.455 169.400 120.400 169.400 H 110.400 C 110.345 169.400 110.300 169.445 110.300 169.500 V 174.400 C 110.300 174.500 110.400 174.400 110.300 174.400 H 100.500 C 100.400 174.400 100.500 174.500 100.500 174.400 V 169.500 C 100.500 169.445 100.455 169.400 100.400 169.400 H 90.400 C 90.345 169.400 90.300 169.445 90.300 169.500 V 174.400 C 90.300 174.500 90.400 174.400 90.300 174.400 H 80.500 C 80.400 174.400 80.500 174.500 80.500 174.400 V 169.500 C 80.500 169.445 80.455 169.400 80.400 169.400 H 70.400 C 70.345 169.400 70.300 169.445 70.300 169.500 V 174.400 C 70.300 174.500 70.400 174.400 70.300 174.400 H 60.500 C 60.400 174.400 60.500 174.500 60.500 174.400 V 169.500 C 60.500 169.445 60.455 169.400 60.400 169.400 H 50.400 C 50.345 169.400 50.300 169.445 50.300 169.500 V 174.400 C 50.300 174.500 50.400 174.400 50.300 174.400 H 40.500 C 40.400 174.400 40.500 174.500 40.500 174.400 V 169.500 C 40.500 169.445 40.455 169.400 40.400 169.400 H 30.400 C 30.345 169.400 30.300 169.445 30.300 169.500 V 174.400 C 30.300 174.500 30.400 174.400 30.300 174.400 H 15.400 C 15.345 174.400 15.300 174.445 15.300 174.500 V 189.400 C 15.300 189.500 15.400 189.400 15.300 189.400 H 10.400 C 10.345 189.400 10.300 189.445 10.300 189.500 V 199.500 C 10.300 199.555 10.345 199.600 10.400 199.600 H 15.300 C 15.400 199.600 15.300 199.500 15.300 199.600 V 214.500 C 15.300 214.555 15.345 214.600 15.400 214.600" stroke="rgb(0,0,0)" stroke-width="0.20"/>
</g>
<g id="p-2" style="fill:none;stroke-linecap:round;stroke-linejoin:round;">
  <text transform="matrix( 1.000 0.000 0.000 1.000 213.100 192.600 )" style="font-family: sans-serif ; font-weight: normal; font-style: normal; fill: rgb(255,0,0)" font-size="4px" text-anchor="middle" dominant-baseline="hanging">Wall 2</text><path d="M 168.100 214.600 H 178.000 C 178.100 214.600 178.000 214.500 178.000 214.600 V 219.500 C 178.000 219.555 178.045 219.600 178.100 219.600 H 188.100 C 188.155 219.600 188.200 219.555 188.200 219.500 V 214.600 C 188.200 214.500 188.100 214.600 188.200 214.600 H 198.000 C 198.100 214.600 198.000 214.500 198.000 214.600 V 219.500 C 198.000 219.555 198.045 219.600 198.100 219.600 H 208.100 C 208.155 219.600 208.200 219.555 208.200 219.500 V 214.600 C 208.200 214.500 208.100 214.600 208.200 214.600 H 218.000 C 218.100 214.600 218.000 214.500 218.000 214.600 V 219.500 C 218.000 219.555 218.045 219.600 218.100 219.600 H 228.100 C 228.155 219.600 228.200 219.555 228.200 219.500 V 214.600 C 228.200 214.500 228.100 214.600 228.200 214.600 H 238.000 C 238.100 214.600 238.000 214.500 238.000 214.600 V 219.500 C 238.000 219.555 238.045 219.600 238.100 219.600 H 248.100 C 248.155 219.600 248.200 219.555 248.200 219.500 V 214.600 C 248.200 214.500 248.100 214.600 248.200 214.600 H 258.100 H 263.100 C 263.155 214.600 263.200 214.555 263.200 214.500 V 199.500 C 263.200 199.445 263.155 199.400 263.100 199.400 H 258.200 C 258.100 199.400 258.200 199.500 258.200 199.400 V 189.600 C 258.200 189.500 258.100 189.600 258.200 189.600 H 263.100 C 263.155 189.600 263.200 189.555 263.200 189.500 V 174.500 C 263.200 174.445 263.155 174.400 263.100 174.400 H 258.100 H 248.200 C 248.100 174.400 248.200 174.500 248.200 174.400 V 169.500 C 248.200 169.445 248.155 169.400 248.100 169.400 H 238.100 C 238.045 169.400 238.000 169.445 238.000 169.500 V 174.400 C 238.000 174.500 238.100 174.400 238.000 174.400 H 228.200 C 228.100 174.400 228.200 174.500 228.200 174.400 V 169.500 C 228.200 169.445 228.155 169.400 228.100 169.400 H 218.100 C 218.045 169.400 218.000 169.445 218.000 169.500 V 174.400 C 218.000 174.500 218.100 174.400 218.000 174.400 H 208.200 C 208.100 174.400 208.200 174.500 208.200 174.400 V 169.500 C 208.200 169.445 208.155 169.400 208.100 169.400 H 198.100 C 198.045 169.400 198.000 169.445 198.000 169.500 V 174.400 C 198.000 174.500 198.100 174.400 198.000 174.400 H 188.200 C 188.100 174.400 188.200 174.500 188.200 174.400 V 169.500 C 188.200 169.445 188.155 169.400 188.100 169.400 H 178.100 C 178.045 169.400 178.000 169.445 178.000 169.500 V 174.400 C 178.000 174.500 178.100 174.400 178.000 174.400 H 168.100 H 163.100 C 163.045 174.400 163.000 174.445 163.000 174.500 V 189.500 C 163.000 189.555 163.045 189.600 163.100 189.600 H 168.000 C 168.100 189.600 168.000 189.500 168.000 189.600 V 199.400 C 168.000 199.500 168.100 199.400 168.000 199.400 H 163.100 C 163.045 199.400 163.000 199.445 163.000 199.500 V 214.500 C 163.000 214.555 163.045 214.600 163.100 214.600 H 168.100" stroke="rgb(0,0,0)" stroke-width="0.20"/>
</g>
<g id="p-3" style="fill:none;stroke-linecap:round;stroke-linejoin:round;">
  <text transform="matrix( 1.000 0.000 0.000 1.000 213.100 139.900 )" style="font-family: sans-serif ; font-weight: normal; font-style: normal; fill: rgb(255,0,0)" font-size="4px" text-anchor="middle" dominant-baseline="hanging">Wall 4</text><path d="M 168.100 161.900 H 178.000 C 178.100 161.900 178.000 161.800 178.000 161.900 V 166.800 C 178.000 166.855 178.045 166.900 178.100 166.900 H 188.100 C 188.155 166.900 188.200 166.855 188.200 166.800 V 161.900 C 188.200 161.800 188.100 161.900 188.200 161.900 H 198.000 C 198.100 161.900 198.000 161.800 198.000 161.900 V 166.800 C 198.000 166.855 198.045 166.900 198.100 166.900 H 208.100 C 208.155 166.900 208.200 166.855 208.200 166.800 V 161.900 C 208.200 161.800 208.100 161.900 208.200 161.900 H 218.000 C 218.100 161.900 218.000 161.800 218.000 161.900 V 166.800 C 218.000 166.855 218.045 166.900 218.100 166.900 H 228.100 C 228.155 166.900 228.200 166.855 228.200 166.800 V 161.900 C 228.200 161.800 228.100 161.900 228.200 161.900 H 238.000 C 238.100 161.900 238.000 161.800 238.000 161.900 V 166.800 C 238.000 166.855 238.045 166.900 238.100 166.900 H 248.100 C 248.155 166.900 248.200 166.855 248.200 166.800 V 161.900 C 248.200 161.800 248.100 161.900 248.200 161.900 H 258.100 H 263.100 C 263.155 161.900 263.200 161.855 263.200 161.800 V 146.800 C 263.200 146.745 263.155 146.700 263.100 146.700 H 258.200 C 258.100 146.700 258.200 146.800 258.200 146.700 V 136.900 C 258.200 136.800 258.100 136.900 258.200 136.900 H 263.100 C 263.155 136.900 263.200 136.855 263.200 136.800 V 121.800 C 263.200 121.745 263.155 121.700 263.100 121.700 H 258.100 H 248.200 C 248.100 121.700 248.200 121.800 248.200 121.700 V 116.800 C 248.200 116.745 248.155 116.700 248.100 116.700 H 238.100 C 238.045 116.700 238.000 116.745 238.000 116.800 V 121.700 C 238.000 121.800 238.100 121.700 238.000 121.700 H 228.200 C 228.100 121.700 228.200 121.800 228.200 121.700 V 116.800 C 228.200 116.745 228.155 116.700 228.100 116.700 H 218.100 C 218.045 116.700 218.000 116.745 218.000 116.800 V 121.700 C 218.000 121.800 218.100 121.700 218.000 121.700 H 208.200 C 208.100 121.700 208.200 121.800 208.200 121.700 V 116.800 C 208.200 116.745 208.155 116.700 208.100 116.700 H 198.100 C 198.045 116.700 198.000 116.745 198.000 116.800 V 121.700 C 198.000 121.800 198.100 121.700 198.000 121.700 H 188.200 C 188.100 121.700 188.200 121.800 188.200 121.700 V 116.800 C 188.200 116.745 188.155 116.700 188.100 116.700 H 178.100 C 178.045 116.700 178.000 116.745 178.000 116.800 V 121.700 C 178.000 121.800 178.100 121.700 178.000 121.700 H 168.100 H 163.100 C 163.045 121.700 163.000 121.745 163.000 121.800 V 136.800 C 163.000 136.855 163.045 136.900 163.100 136.900 H 168.000 C 168.100 136.900 168.000 136.800 168.000 136.900 V 146.700 C 168.000 146.800 168.100 146.700 168.000 146.700 H 163.100 C 163.045 146.700 163.000 146.745 163.000 146.800 V 161.800 C 163.000 161.855 163.045 161.900 163.100 161.900 H 168.100" stroke="rgb(0,0,0)" stroke-width="0.20"/>
</g>
<g id="p-4" style="fill:none;stroke-linecap:round;stroke-linejoin:round;">
  <text transform="matrix( 1.000 0.000 0.000 1.000 85.400 139.900 )" style="font-family: sans-serif ; font-weight: normal; font-style: normal; fill: rgb(255,0,0)" font-size="4px" text-anchor="middle" dominant-baseline="hanging">Wall 3</text><path d="M 15.400 161.900 H 30.300 C 30.400 161.900 30.300 161.800 30.300 161.900 V 166.800 C 30.300 166.855 30.345 166.900 30.400 166.900 H 40.400 C 40.455 166.900 40.500 166.855 40.500 166.800 V 161.900 C 40.500 161.800 40.400 161.900 40.500 161.900 H 50.300 C 50.400 161.900 50.300 161.800 50.300 161.900 V 166.800 C 50.300 166.855 50.345 166.900 50.400 166.900 H 60.400 C 60.455 166.900 60.500 166.855 60.500 166.800 V 161.900 C 60.500 161.800 60.400 161.900 60.500 161.900 H 70.300 C 70.400 161.900 70.300 161.800 70.300 161.900 V 166.800 C 70.300 166.855 70.345 166.900 70.400 166.900 H 80.400 C 80.455 166.900 80.500 166.855 80.500 166.800 V 161.900 C 80.500 161.800 80.400 161.900 80.500 161.900 H 90.300 C 90.400 161.900 90.300 161.800 90.300 161.900 V 166.800 C 90.300 166.855 90.345 166.900 90.400 166.900 H 100.400 C 100.455 166.900 100.500 166.855 100.500 166.800 V 161.900 C 100.500 161.800 100.400 161.900 100.500 161.900 H 110.300 C 110.400 161.900 110.300 161.800 110.300 161.900 V 166.800 C 110.300 166.855 110.345 166.900 110.400 166.900 H 120.400 C 120.455 166.900 120.500 166.855 120.500 166.800 V 161.900 C 120.500 161.800 120.400 161.900 120.500 161.900 H 130.300 C 130.400 161.900 130.300 161.800 130.300 161.900 V 166.800 C 130.300 166.855 130.345 166.900 130.400 166.900 H 140.400 C 140.455 166.900 140.500 166.855 140.500 166.800 V 161.900 C 140.500 161.800 140.400 161.900 140.500 161.900 H 155.400 C 155.455 161.900 155.500 161.855 155.500 161.800 V 146.900 C 155.500 146.800 155.400 146.900 155.500 146.900 H 160.400 C 160.455 146.900 160.500 146.855 160.500 146.800 V 136.800 C 160.500 136.745 160.455 136.700 160.400 136.700 H 155.500 C 155.400 136.700 155.500 136.800 155.500 136.700 V 121.800 C 155.500 121.745 155.455 121.700 155.400 121.700 H 140.500 C 140.400 121.700 140.500 121.800 140.500 121.700 V 116.800 C 140.500 116.745 140.455 116.700 140.400 116.700 H 130.400 C 130.345 116.700 130.300 116.745 130.300 116.800 V 121.700 C 130.300 121.800 130.400 121.700 130.300 121.700 H 120.500 C 120.400 121.700 120.500 121.800 120.500 121.700 V 116.800 C 120.500 116.745 120.455 116.700 120.400 116.700 H 110.400 C 110.345 116.700 110.300 116.745 110.300 116.800 V 121.700 C 110.300 121.800 110.400 121.700 110.300 121.700 H 100.500 C 100.400 121.700 100.500 121.800 100.500 121.700 V 116.800 C 100.500 116.745 100.455 116.700 100.400 116.700 H 90.400 C 90.345 116.700 90.300 116.745 90.300 116.800 V 121.700 C 90.300 121.800 90.400 121.700 90.300 121.700 H 80.500 C 80.400 121.700 80.500 121.800 80.500 121.700 V 116.800 C 80.500 116.745 80.455 116.700 80.400 116.700 H 70.400 C 70.345 116.700 70.300 116.745 70.300 116.800 V 121.700 C 70.300 121.800 70.400 121.700 70.300 121.700 H 60.500 C 60.400 121.700 60.500 121.800 60.500 121.700 V 116.800 C 60.500 116.745 60.455 116.700 60.400 116.700 H 50.400 C 50.345 116.700 50.300 116.745 50.300 116.800 V 121.700 C 50.300 121.800 50.400 121.700 50.300 121.700 H 40.500 C 40.400 121.700 40.500 121.800 40.500 121.700 V 116.800 C 40.500 116.745 40.455 116.700 40.400 116.700 H 30.400 C 30.345 116.700 30.300 116.745 30.300 116.800 V 121.700 C 30.300 121.800 30.400 121.700 30.300 121.700 H 15.400 C 15.345 121.700 15.300 121.745 15.300 121.800 V 136.700 C 15.300 136.800 15.400 136.700 15.300 136.700 H 10.400 C 10.345 136.700 10.300 136.745 10.300 136.800 V 146.800 C 10.300 146.855 10.345 146.900 10.400 146.900 H 15.300 C 15.400 146.900 15.300 146.800 15.300 146.900 V 161.800 C 15.300 161.855 15.345 161.900 15.400 161.900" stroke="rgb(0,0,0)" stroke-width="0.20"/>
</g>
<g id="p-5" style="fill:none;stroke-linecap:round;stroke-linejoin:round;">
  <path d="M 37.400 112.100 H 32.500 C 32.400 112.100 32.500 112.200 32.500 112.100 V 107.300 C 32.500 107.200 32.400 107.300 32.500 107.300 H 42.300 C 42.400 107.300 42.300 107.200 42.300 107.300 V 112.100 C 42.300 112.200 42.400 112.100 42.300 112.100 H 37.400 Z" stroke="rgb(0,0,255)" stroke-width="0.20"/>
  <path d="M 57.400 112.100 H 52.500 C 52.400 112.100 52.500 112.200 52.500 112.100 V 107.300 C 52.500 107.200 52.400 107.300 52.500 107.300 H 62.300 C 62.400 107.300 62.300 107.200 62.300 107.300 V 112.100 C 62.300 112.200 62.400 112.100 62.300 112.100 H 57.400 Z" stroke="rgb(0,0,255)" stroke-width="0.20"/>
  <path d="M 77.400 112.100 H 72.500 C 72.400 112.100 72.500 112.200 72.500 112.100 V 107.300 C 72.500 107.200 72.400 107.300 72.500 107.300 H 82.300 C 82.400 107.300 82.300 107.200 82.300 107.300 V 112.100 C 82.300 112.200 82.400 112.100 82.300 112.100 H 77.400 Z" stroke="rgb(0,0,255)" stroke-width="0.20"/>
  <path d="M 97.400 112.100 H 92.500 C 92.400 112.100 92.500 112.200 92.500 112.100 V 107.300 C 92.500 107.200 92.400 107.300 92.500 107.300 H 102.300 C 102.400 107.300 102.300 107.200 102.300 107.300 V 112.100 C 102.300 112.200 102.400 112.100 102.300 112.100 H 97.400 Z" stroke="rgb(0,0,255)" stroke-width="0.20"/>
  <path d="M 117.400 112.100 H 112.500 C 112.400 112.100 112.500 112.200 112.500 112.100 V 107.300 C 112.500 107.200 112.400 107.300 112.500 107.300 H 122.300 C 122.400 107.300 122.300 107.200 122.300 107.300 V 112.100 C 122.300 112.200 122.400 112.100 122.300 112.100 H 117.400 Z" stroke="rgb(0,0,255)" stroke-width="0.20"/>
  <path d="M 137.400 112.100 H 132.500 C 132.400 112.100 132.500 112.200 132.500 112.100 V 107.300 C 132.500 107.200 132.400 107.300 132.500 107.300 H 142.300 C 142.400 107.300 142.300 107.200 142.300 107.300 V 112.100 C 142.300 112.200 142.400 112.100 142.300 112.100 H 137.400 Z" stroke="rgb(0,0,255)" stroke-width="0.20"/>
  <text transform="matrix( 1.000 0.000 0.000 1.000 87.400 60.200 )" style="font-family: sans-serif ; font-weight: normal; font-style: normal; fill: rgb(255,0,0)" font-size="4px" text-anchor="middle" dominant-baseline="hanging">Top</text><path d="M 10.400 114.200 H 164.400 C 164.455 114.200 164.500 114.155 164.500 114.100 V 10.100 C 164.500 10.045 164.455 10.000 164.400 10.000 H 10.400 C 10.345 10.000 10.300 10.045 10.300 10.100 V 114.100 C 10.300 114.155 10.345 114.200 10.400 114.200" stroke="rgb(0,0,0)" stroke-width="0.20"/>
  <path d="M 162.400 92.100 V 97.000 C 162.400 97.100 162.500 97.000 162.400 97.000 H 157.600 C 157.500 97.000 157.600 97.100 157.600 97.000 V 87.200 C 157.600 87.100 157.500 87.200 157.600 87.200 H 162.400 C 162.500 87.200 162.400 87.100 162.400 87.200 V 92.100 Z" stroke="rgb(0,0,255)" stroke-width="0.20"/>
  <path d="M 162.400 72.100 V 77.000 C 162.400 77.100 162.500 77.000 162.400 77.000 H 157.600 C 157.500 77.000 157.600 77.100 157.600 77.000 V 67.200 C 157.600 67.100 157.500 67.200 157.600 67.200 H 162.400 C 162.500 67.200 162.400 67.100 162.400 67.200 V 72.100 Z" stroke="rgb(0,0,255)" stroke-width="0.20"/>
  <path d="M 162.400 52.100 V 57.000 C 162.400 57.100 162.500 57.000 162.400 57.000 H 157.600 C 157.500 57.000 157.600 57.100 157.600 57.000 V 47.200 C 157.600 47.100 157.500 47.200 157.600 47.200 H 162.400 C 162.500 47.200 162.400 47.100 162.400 47.200 V 52.100 Z" stroke="rgb(0,0,255)" stroke-width="0.20"/>
  <path d="M 162.400 32.100 V 37.000 C 162.400 37.100 162.500 37.000 162.400 37.000 H 157.600 C 157.500 37.000 157.600 37.100 157.600 37.000 V 27.200 C 157.600 27.100 157.500 27.200 157.600 27.200 H 162.400 C 162.500 27.200 162.400 27.100 162.400 27.200 V 32.100 Z" stroke="rgb(0,0,255)" stroke-width="0.20"/>
  <path d="M 137.400 12.100 H 142.300 C 142.400 12.100 142.300 12.000 142.300 12.100 V 16.900 C 142.300 17.000 142.400 16.900 142.300 16.900 H 132.500 C 132.400 16.900 132.500 17.000 132.500 16.900 V 12.100 C 132.500 12.000 132.400 12.100 132.500 12.100 H 137.400 Z" stroke="rgb(0,0,255)" stroke-width="0.20"/>
  <path d="M 117.400 12.100 H 122.300 C 122.400 12.100 122.300 12.000 122.300 12.100 V 16.900 C 122.300 17.000 122.400 16.900 122.300 16.900 H 112.500 C 112.400 16.900 112.500 17.000 112.500 16.900 V 12.100 C 112.500 12.000 112.400 12.100 112.500 12.100 H 117.400 Z" stroke="rgb(0,0,255)" stroke-width="0.20"/>
  <path d="M 97.400 12.100 H 102.300 C 102.400 12.100 102.300 12.000 102.300 12.100 V 16.900 C 102.300 17.000 102.400 16.900 102.300 16.900 H 92.500 C 92.400 16.900 92.500 17.000 92.500 16.900 V 12.100 C 92.500 12.000 92.400 12.100 92.500 12.100 H 97.400 Z" stroke="rgb(0,0,255)" stroke-width="0.20"/>
  <path d="M 77.400 12.100 H 82.300 C 82.400 12.100 82.300 12.000 82.300 12.100 V 16.900 C 82.300 17.000 82.400 16.900 82.300 16.900 H 72.500 C 72.400 16.900 72.500 17.000 72.500 16.900 V 12.100 C 72.500 12.000 72.400 12.100 72.500 12.100 H 77.400 Z" stroke="rgb(0,0,255)" stroke-width="0.20"/>
  <path d="M 57.400 12.100 H 62.300 C 62.400 12.100 62.300 12.000 62.300 12.100 V 16.900 C 62.300 17.000 62.400 16.900 62.300 16.900 H 52.500 C 52.400 16.900 52.500 17.000 52.500 16.900 V 12.100 C 52.500 12.000 52.400 12.100 52.500 12.100 H 57.400 Z" stroke="rgb(0,0,255)" stroke-width="0.20"/>
  <path d="M 37.400 12.100 H 42.300 C 42.400 12.100 42.300 12.000 42.300 12.100 V 16.900 C 42.300 17.000 42.400 16.900 42.300 16.900 H 32.500 C 32.400 16.900 32.500 17.000 32.500 16.900 V 12.100 C 32.500 12.000 32.400 12.100 32.500 12.100 H 37.400 Z" stroke="rgb(0,0,255)" stroke-width="0.20"/>
  <path d="M 12.400 32.100 V 27.200 C 12.400 27.100 12.300 27.200 12.400 27.200 H 17.200 C 17.300 27.200 17.200 27.100 17.200 27.200 V 37.000 C 17.200 37.100 17.300 37.000 17.200 37.000 H 12.400 C 12.300 37.000 12.400 37.100 12.400 37.000 V 32.100 Z" stroke="rgb(0,0,255)" stroke-width="0.20"/>
  <path d="M 12.400 52.100 V 47.200 C 12.400 47.100 12.300 47.200 12.400 47.200 H 17.200 C 17.300 47.200 17.200 47.100 17.200 47.200 V 57.000 C 17.200 57.100 17.300 57.000 17.200 57.000 H 12.400 C 12.300 57.000 12.400 57.100 12.400 57.000 V 52.100 Z" stroke="rgb(0,0,255)" stroke-width="0.20"/>
  <path d="M 12.400 72.100 V 67.200 C 12.400 67.100 12.300 67.200 12.400 67.200 H 17.200 C 17.300 67.200 17.200 67.100 17.200 67.200 V 77.000 C 17.200 77.100 17.300 77.000 17.200 77.000 H 12.400 C 12.300 77.000 12.400 77.100 12.400 77.000 V 72.100 Z" stroke="rgb(0,0,255)" stroke-width="0.20"/>
  <path d="M 12.400 92.100 V 87.200 C 12.400 87.100 12.300 87.200 12.400 87.200 H 17.200 C 17.300 87.200 17.200 87.100 17.200 87.200 V 97.000 C 17.200 97.100 17.300 97.000 17.200 97.000 H 12.400 C 12.300 97.000 12.400 97.100 12.400 97.000 V 92.100 Z" stroke="rgb(0,0,255)" stroke-width="0.20"/>
</g>
<g id="p-6" style="fill:none;stroke-linecap:round;stroke-linejoin:round;">
  <path d="M 194.100 112.100 H 189.200 C 189.100 112.100 189.200 112.200 189.200 112.100 V 107.300 C 189.200 107.200 189.100 107.300 189.200 107.300 H 199.000 C 199.100 107.300 199.000 107.200 199.000 107.300 V 112.100 C 199.000 112.200 199.100 112.100 199.000 112.100 H 194.100 Z" stroke="rgb(0,0,255)" stroke-width="0.20"/>
  <path d="M 214.100 112.100 H 209.200 C 209.100 112.100 209.200 112.200 209.200 112.100 V 107.300 C 209.200 107.200 209.100 107.300 209.200 107.300 H 219.000 C 219.100 107.300 219.000 107.200 219.000 107.300 V 112.100 C 219.000 112.200 219.100 112.100 219.000 112.100 H 214.100 Z" stroke="rgb(0,0,255)" stroke-width="0.20"/>
  <path d="M 234.100 112.100 H 229.200 C 229.100 112.100 229.200 112.200 229.200 112.100 V 107.300 C 229.200 107.200 229.100 107.300 229.200 107.300 H 239.000 C 239.100 107.300 239.000 107.200 239.000 107.300 V 112.100 C 239.000 112.200 239.100 112.100 239.000 112.100 H 234.100 Z" stroke="rgb(0,0,255)" stroke-width="0.20"/>
  <path d="M 254.100 112.100 H 249.200 C 249.100 112.100 249.200 112.200 249.200 112.100 V 107.300 C 249.200 107.200 249.100 107.300 249.200 107.300 H 259.000 C 259.100 107.300 259.000 107.200 259.000 107.300 V 112.100 C 259.000 112.200 259.100 112.100 259.000 112.100 H 254.100 Z" stroke="rgb(0,0,255)" stroke-width="0.20"/>
  <path d="M 274.100 112.100 H 269.200 C 269.100 112.100 269.200 112.200 269.200 112.100 V 107.300 C 269.200 107.200 269.100 107.300 269.200 107.300 H 279.000 C 279.100 107.300 279.000 107.200 279.000 107.300 V 112.100 C 279.000 112.200 279.100 112.100 279.000 112.100 H 274.100 Z" stroke="rgb(0,0,255)" stroke-width="0.20"/>
  <path d="M 294.100 112.100 H 289.200 C 289.100 112.100 289.200 112.200 289.200 112.100 V 107.300 C 289.200 107.200 289.100 107.300 289.200 107.300 H 299.000 C 299.100 107.300 299.000 107.200 299.000 107.300 V 112.100 C 299.000 112.200 299.100 112.100 299.000 112.100 H 294.100 Z" stroke="rgb(0,0,255)" stroke-width="0.20"/>
  <text transform="matrix( 1.000 0.000 0.000 1.000 244.100 60.200 )" style="font-family: sans-serif ; font-weight: normal; font-style: normal; fill: rgb(255,0,0)" font-size="4px" text-anchor="middle" dominant-baseline="hanging">Bottom</text><path d="M 167.100 114.200 H 321.100 C 321.155 114.200 321.200 114.155 321.200 114.100 V 10.100 C 321.200 10.045 321.155 10.000 321.100 10.000 H 167.100 C 167.045 10.000 167.000 10.045 167.000 10.100 V 114.100 C 167.000 114.155 167.045 114.200 167.100 114.200" stroke="rgb(0,0,0)" stroke-width="0.20"/>
  <path d="M 319.100 92.100 V 97.000 C 319.100 97.100 319.200 97.000 319.100 97.000 H 314.300 C 314.200 97.000 314.300 97.100 314.300 97.000 V 87.200 C 314.300 87.100 314.200 87.200 314.300 87.200 H 319.100 C 319.200 87.200 319.100 87.100 319.100 87.200 V 92.100 Z" stroke="rgb(0,0,255)" stroke-width="0.20"/>
  <path d="M 319.100 72.100 V 77.000 C 319.100 77.100 319.200 77.000 319.100 77.000 H 314.300 C 314.200 77.000 314.300 77.100 314.300 77.000 V 67.200 C 314.300 67.100 314.200 67.200 314.300 67.200 H 319.100 C 319.200 67.200 319.100 67.100 319.100 67.200 V 72.100 Z" stroke="rgb(0,0,255)" stroke-width="0.20"/>
  <path d="M 319.100 52.100 V 57.000 C 319.100 57.100 319.200 57.000 319.100 57.000 H 314.300 C 314.200 57.000 314.300 57.100 314.300 57.000 V 47.200 C 314.300 47.100 314.200 47.200 314.300 47.200 H 319.100 C 319.200 47.200 319.100 47.100 319.100 47.200 V 52.100 Z" stroke="rgb(0,0,255)" stroke-width="0.20"/>
  <path d="M 319.100 32.100 V 37.000 C 319.100 37.100 319.200 37.000 319.100 37.000 H 314.300 C 314.200 37.000 314.300 37.100 314.300 37.000 V 27.200 C 314.300 27.100 314.200 27.200 314.300 27.200 H 319.100 C 319.200 27.200 319.100 27.100 319.100 27.200 V 32.100 Z" stroke="rgb(0,0,255)" stroke-width="0.20"/>
  <path d="M 294.100 12.100 H 299.000 C 299.100 12.100 299.000 12.000 299.000 12.100 V 16.900 C 299.000 17.000 299.100 16.900 299.000 16.900 H 289.200 C 289.100 16.900 289.200 17.000 289.200 16.900 V 12.100 C 289.200 12.000 289.100 12.100 289.200 12.100 H 294.100 Z" stroke="rgb(0,0,255)" stroke-width="0.20"/>
  <path d="M 274.100 12.100 H 279.000 C 279.100 12.100 279.000 12.000 279.000 12.100 V 16.900 C 279.000 17.000 279.100 16.900 279.000 16.900 H 269.200 C 269.100 16.900 269.200 17.000 269.200 16.900 V 12.100 C 269.200 12.000 269.100 12.100 269.200 12.100 H 274.100 Z" stroke="rgb(0,0,255)" stroke-width="0.20"/>
  <path d="M 254.100 12.100 H 259.000 C 259.100 12.100 259.000 12.000 259.000 12.100 V 16.900 C 259.000 17.000 259.100 16.900 259.000 16.900 H 249.200 C 249.100 16.900 249.200 17.000 249.200 16.900 V 12.100 C 249.200 12.000 249.100 12.100 249.200 12.100 H 254.100 Z" stroke="rgb(0,0,255)" stroke-width="0.20"/>
  <path d="M 234.100 12.100 H 239.000 C 239.100 12.100 239.000 12.000 239.000 12.100 V 16.900 C 239.000 17.000 239.100 16.900 239.000 16.900 H 229.200 C 229.100 16.900 229.200 17.000 229.200 16.900 V 12.100 C 229.200 12.000 229.100 12.100 229.200 12.100 H 234.100 Z" stroke="rgb(0,0,255)" stroke-width="0.20"/>
  <path d="M 214.100 12.100 H 219.000 C 219.100 12.100 219.000 12.000 219.000 12.100 V 16.900 C 219.000 17.000 219.100 16.900 219.000 16.900 H 209.200 C 209.100 16.900 209.200 17.000 209.200 16.900 V 12.100 C 209.200 12.000 209.100 12.100 209.200 12.100 H 214.100 Z" stroke="rgb(0,0,255)" stroke-width="0.20"/>
  <path d="M 194.100 12.100 H 199.000 C 199.100 12.100 199.000 12.000 199.000 12.100 V 16.900 C 199.000 17.000 199.100 16.900 199.000 16.900 H 189.200 C 189.100 16.900 189.200 17.000 189.200 16.900 V 12.100 C 189.200 12.000 189.100 12.100 189.200 12.100 H 194.100 Z" stroke="rgb(0,0,255)" stroke-width="0.20"/>
  <path d="M 169.100 32.100 V 27.200 C 169.100 27.100 169.000 27.200 169.100 27.200 H 173.900 C 174.000 27.200 173.900 27.100 173.900 27.200 V 37.000 C 173.900 37.100 174.000 37.000 173.900 37.000 H 169.100 C 169.000 37.000 169.100 37.100 169.100 37.000 V 32.100 Z" stroke="rgb(0,0,255)" stroke-width="0.20"/>
  <path d="M 169.100 52.100 V 47.200 C 169.100 47.100 169.000 47.200 169.100 47.200 H 173.900 C 174.000 47.200 173.900 47.100 173.900 47.200 V 57.000 C 173.900 57.100 174.000 57.000 173.900 57.000 H 169.100 C 169.000 57.000 169.100 57.100 169.100 57.000 V 52.100 Z" stroke="rgb(0,0,255)" stroke-width="0.20"/>
  <path d="M 169.100 72.100 V 67.200 C 169.100 67.100 169.000 67.200 169.100 67.200 H 173.900 C 174.000 67.200 173.900 67.100 173.900 67.200 V 77.000 C 173.900 77.100 174.000 77.000 173.900 77.000 H 169.100 C 169.000 77.000 169.100 77.100 169.100 77.000 V 72.100 Z" stroke="rgb(0,0,255)" stroke-width="0.20"/>
  <path d="M 169.100 92.100 V 87.200 C 169.100 87.100 169.000 87.200 169.100 87.200 H 173.900 C 174.000 87.200 173.900 87.100 173.900 87.200 V 97.000 C 173.900 97.100 174.000 97.000 173.900 97.000 H 169.100 C 169.000 97.000 169.100 97.100 169.100 97.000 V 92.100 Z" stroke="rgb(0,0,255)" stroke-width="0.20"/>
</g>
</svg>